<?xml version="1.0" encoding="utf-8"?>
<!-- Generator: Adobe Illustrator 23.0.0, SVG Export Plug-In . SVG Version: 6.00 Build 0)  -->
<svg version="1.1" id="Calque_1" xmlns="http://www.w3.org/2000/svg" xmlns:xlink="http://www.w3.org/1999/xlink" x="0px" y="0px"
	 viewBox="0 0 100 55" style="enable-background:new 0 0 100 55;" xml:space="preserve">
<style type="text/css">
	.st0{fill:#7731B0;}
</style>
<path class="st0" d="M49.3,0c-1.1,0.2-2.1,0.7-2.9,1.5L1.9,45.3v0c-1.1,1-1.8,2.4-1.9,3.9c-0.1,1.5,0.4,3,1.5,4.1
	c1,1.1,2.4,1.7,3.9,1.7c1.5,0,2.9-0.6,3.9-1.7L50,13.1l40.8,40.2h0c1,1.1,2.4,1.7,3.9,1.7c1.5,0,2.9-0.6,3.9-1.7
	c1-1.1,1.5-2.6,1.5-4.1c-0.1-1.5-0.8-2.9-1.9-3.9L53.7,1.5v0C52.5,0.4,50.9-0.2,49.3,0L49.3,0z"/>
</svg>
