<?xml version="1.0" encoding="utf-8"?>
<!-- Generator: Adobe Illustrator 23.0.0, SVG Export Plug-In . SVG Version: 6.00 Build 0)  -->
<svg version="1.1" id="Calque_1" xmlns="http://www.w3.org/2000/svg" xmlns:xlink="http://www.w3.org/1999/xlink" x="0px" y="0px"
	 viewBox="0 0 55 100" style="enable-background:new 0 0 55 100;" xml:space="preserve">
<style type="text/css">
	.st0{fill:#E0E0E0;}
</style>
<g transform="translate(0.000000,1280.000000) scale(0.100000,-0.100000)">
	<path class="st0" d="M0,12717.8c0-49.9,0.7-85.6,1.7-90.8c1.8-8.8,10.6-25.3,17.3-32.3c5.5-5.7,20-11.1,35.2-13.2
		c7.6-1.1,32.9-2.1,59.7-2.6c109.7-1.8,194.4-11,248.6-26.4c17.5-5,40.1-14.1,52.2-21c35.2-19.9,49.9-49.7,41.9-85.5
		c-3.2-13.6-9-23.4-19.6-32.2c-22.9-19.3-58-32.6-149.3-56.6c-28.3-7.4-60.5-18.1-65.2-21.4c-7.8-5.5-13.3-19.3-16.1-40.2
		c-1.2-7.8-1.8-47.5-1.8-100v-87.1l27.8,0.3l27.9,0.4l5.3,34.3c6,39.1,7.6,46.3,13.1,55c8.1,12.7,14.3,15.8,94.6,47.6
		c61.7,24.4,79.6,33.1,106.2,51.7c34.1,23.7,57.7,64.5,66.7,115.4c3.7,20.8,5,64,2.7,84.4c-8.8,75.6-39.2,132.7-93.6,175.5
		c-25.1,19.7-49.2,33.2-79.6,44.7c-27.3,10.4-54,16.4-99.4,22.6c-17.5,2.4-96.1,9.1-129,11.2c-36.2,2.2-65.2,6.3-75.7,10.6
		c-6.2,2.5-18,14.2-19.1,18.9c-0.5,2-1.8,6.9-3,10.8l-2.2,7.3l-23.6,0.4L0,12800V12717.8z"/>
	<path class="st0" d="M207.5,12022.8c-23.9-3.3-50-14-70.2-28.9c-9.3-6.9-25.3-24.4-31.9-34.7c-10.3-16.2-13.1-26.8-13.1-49.2
		c0-16.8,0.7-21.4,3.8-30.3c13-35.6,53-67,97.6-76.7c15.3-3.3,50.5-4,67.5-1.3c47.7,7.5,90.9,39.8,104.9,78c3.3,9.1,3.8,13.5,3.7,31
		c-0.2,18.2-0.5,21.6-4.5,32.1c-16,41.4-55.2,71.2-104.6,79.3C247.2,12024.2,221.1,12024.5,207.5,12022.8z"/>
</g>
</svg>
