<?xml version="1.0" encoding="utf-8"?>
<!-- Generator: Adobe Illustrator 23.0.0, SVG Export Plug-In . SVG Version: 6.00 Build 0)  -->
<svg version="1.1" id="Calque_1" xmlns="http://www.w3.org/2000/svg" xmlns:xlink="http://www.w3.org/1999/xlink" x="0px" y="0px"
	 viewBox="0 0 314 352" style="enable-background:new 0 0 314 352;" xml:space="preserve">
<style type="text/css">
	.st0{fill:#7731B0;}
	.st1{fill:#FFE77F;}
</style>
<g>
	<g>
		<g>
			<path class="st0" d="M226.2,109.9c-0.7-12.6-38.4-9.9-49-10.1c-8.5-0.2-99.2,0.4-99.3,2c0,1.1,79.2,0.8,90.2,1
				c11.9,0.2,24,0.5,35.9,1.3c4.1,0.3,17.7,0.3,18.8,5.9c0.3,6.7-18.6,9.2-23,10c0.9-1.2,9.8-13.3,8.9-13.9
				c-0.2-0.1-11,14.3-13.6,14.7c-9.9,1.7-19.8,2.5-29.8,2.6c-21.6,0.2-43.2-2.7-64.5-5.9c-17.2-2.6-34.4-5.3-51.7-7.4
				c-10.9-1.4-22-2.5-33-1.7c-4.2,0.3-9.1,0.8-12.7,3.1c-0.9,0.6-5.2,8.3-2.3,7.5c-0.5,0.1,1.6-6.2,3.6-7.2c3.5-1.7,7.7-2,11.5-2.2
				C25,109,34,110,42.9,111.1c13.6,1.7,27.1,4,40.6,6.1c36.3,5.9,73.4,13,110.1,7.1c-9.7,10.8-20.4,20.6-30.9,30.6
				c-15.3,14.5-37,34.3-59.9,29.7c-19.4-3.9-35.1-19.7-49.4-32.5c-4.1-3.6-39-40.9-38.9-41c-2.3,1.6,35.9,42.5,41.9,48.2
				c19.1,17.9,42.6,37.7,70.2,26.6c20.4-8.2,35.8-25.3,50.9-40.6c3.4-3.5,6.8-7.1,10.1-10.7c3.1-3.4,6.4-9.1,10.3-11
				C205.2,122.4,226,120.4,226.2,109.9L226.2,109.9z"/>
			<path class="st0" d="M110.5,191.1c-21,0-39.4-15.3-55.5-30.4c-3.2-3-13.8-14.3-23.4-24.9c-16.3-18.1-18.8-22.3-19.2-24
				c-2.5,0.3-4.8,0.7-6.9,1.7c-0.8,0.5-2.4,4.3-2.6,5.3c0-0.2,0-0.9-0.6-1.4l-0.2,0.2c-0.1,0.2-0.1,0.4-0.1,0.5c0-0.1,0-0.2-0.1-0.3
				l-0.9,0.9l0.5,2c-0.2,0-0.3,0.1-0.5,0.1l-1.4,0.3l-0.2-0.5c-0.6-0.3-1-0.8-1.2-1.2c-1.3-2.7,2.8-9,3.9-9.7
				c4-2.6,9.1-3.1,13.7-3.4c11.3-0.8,22.7,0.3,33.4,1.7c14.9,1.8,30,4.1,44.6,6.3l7.2,1.1c20.5,3.1,42.4,6.1,64.2,5.9
				c10.3-0.1,19.9-0.9,29.4-2.6c1.8-0.9,8.4-9,10.5-11.6c0.3-0.4,0.6-0.7,0.8-1c-0.1,0-0.3,0-0.4,0c-0.7,0-1.3-0.1-1.8-0.1
				c-12.1-0.8-24.3-1.1-35.8-1.3c-3.2-0.1-11.9-0.1-22.9-0.1c-13.5,0-30.4-0.1-43.8-0.2c-7.4-0.1-12.9-0.2-16.8-0.3
				c-2.2-0.1-3.9-0.1-5-0.2c-1.6-0.1-3.6-0.2-3.6-2.3l0-0.1c0.1-2,2-2.2,5.8-2.4c2.4-0.2,5.9-0.3,10.5-0.5
				c7.9-0.3,18.7-0.5,32.2-0.7c24.1-0.3,48.7-0.4,52.9-0.3c1.5,0,3.6,0,6,0c16.5-0.2,44.2-0.7,44.9,12l0,0.1l0,0.1
				c-0.2,11.2-18,13.8-27.6,15.3c-0.8,0.1-1.5,0.2-2.1,0.3c-2.2,1.2-4.4,4.1-6.4,6.7c-1,1.4-2,2.6-3,3.7c-3.3,3.6-6.7,7.2-10.1,10.7
				c-1.5,1.5-2.9,3-4.4,4.5c-14,14.3-28.4,29-47.2,36.6C121.6,190.1,115.9,191.1,110.5,191.1z M154.5,165.2
				c-10.5,9.3-23.9,19.2-38.4,21.6c3.2-0.5,6.4-1.3,9.7-2.7C136.6,179.7,145.9,172.9,154.5,165.2z M17.6,111.5
				c6.7,7.3,33.7,36,37.2,39.1c1.5,1.3,2.9,2.7,4.4,4c12.7,11.5,27.2,24.6,44,28c22.5,4.5,44.8-16.6,58.1-29.2
				c1.7-1.7,3.5-3.3,5.3-5c7.3-6.9,14.8-14,21.7-21.4c-32.4,4.1-65.1-1.3-96.8-6.5c-2.8-0.5-5.5-0.9-8.3-1.4c-3.3-0.5-6.6-1-9.9-1.6
				c-10-1.6-20.4-3.2-30.6-4.5C34.1,112,25.7,111.1,17.6,111.5z M194.8,118.8C194.8,118.8,194.7,118.8,194.8,118.8
				C194.7,118.8,194.8,118.8,194.8,118.8z M210.7,106.6c-0.2,1.1-1.3,3.6-6.4,10.6c13.9-2.6,16.3-5.4,16.4-6.9
				C220.2,108,215.1,107,210.7,106.6z"/>
		</g>
		<g>
			<path class="st0" d="M133.2,343.3c-3.4-10.7-23.6-14-32.8-15.6c-10-16.3-10.7-35.2-3.3-52.6c7.3-17.1,20.3-33.6,20.3-53
				c0-12.3-12.4-35.1-27.9-29.5c-13.4,4.8-10.5,24.4-8.2,34.7c0.2,0.9,3.7,22,8.7,14c1.8-2.8-1.4-9.3-2.1-12.1
				c-1.4-5.2-2.7-10.4-3-15.8c-0.5-7.4,2.7-19.7,12.7-15.6c8.2,3.4,14.6,12.7,15.7,21.3c2.4,19.7-11.5,37.8-18.4,55.2
				c-7,17.8-6,37,4.3,53.3c-9.2-1.4-20.1-2.2-28.5,2.7c-5.8,5.7,5.4,2.5,7,2.1c7.9-2.4,16.7-1.5,24.7-0.1c0.2,0.3,3.6,5.2,4.3,4.7
				c0.5-0.4-2.9-4.1-3.1-4.5c6.8,1.3,24,3.8,26.6,11.9c0.1,0.5,0.1,0.7-0.2,1.1c-5.8,7.1-61.6,6.9-62.7-1.6
				c-1.9-10.8,34.9-5.4,39.4-1.2c-0.4,0.3-5.7,1.8-5.6,1.4c-0.3,2,5.7-0.6,6.3-1.2l0.3-0.2l-0.2-0.3c-6.9-7.4-23.7-7.2-32.8-5.5
				c-3,0.6-9.6,2.7-9,7c0.6,4.7,9.5,5.6,13,6.2C84.5,351.2,137.1,356.2,133.2,343.3C132.8,342,133.4,343.9,133.2,343.3z"/>
			<path class="st0" d="M107.3,354c-14.3,0-28.7-1.9-29-1.9c-0.3,0-0.7-0.1-1.1-0.2c-4.5-0.7-12.8-2-13.5-7.7
				c-0.6-4.3,3.3-7.1,7.9-8.5c-2.1,0.1-3.5-0.3-4.2-1.5c-1.2-2.2,1.1-4.4,1.9-5.2l0.2-0.2l0.2-0.1c7.7-4.5,17.4-4.5,25.7-3.5
				c-8.5-15.7-9.3-33.8-2.4-51.5c2-5,4.5-10,7-15c6.4-12.6,12.9-25.7,11.3-39.3c-1.1-8.2-7.3-16.7-14.5-19.7c-2.3-1-4.2-0.9-5.7,0.2
				c-3.2,2.3-4.5,8.6-4.2,13.4c0.3,5.3,1.6,10.3,2.9,15.4c0.2,0.6,0.5,1.5,0.8,2.5c1.3,3.7,2.9,8.3,1,11.2c-1.6,2.6-3.4,2.9-4.6,2.7
				c-2.2-0.4-5-2.7-7.7-17l-0.1-0.4c-5.7-25.7,2-34.3,9.5-37c5.2-1.9,10.7-1,15.7,2.5c8.9,6.3,14.9,20,14.9,28.9
				c0,14.2-6.7,26.8-13.1,39c-2.6,4.9-5.2,9.9-7.3,14.8c-7.3,17.1-6.3,34.8,2.7,50c9.2,1.6,27.1,4.8,32.5,14.5l0.2-0.1l0.6,2
				c0,0.1,0.1,0.2,0.1,0.3l0,0.2h0c0.6,2.2,0.2,4.1-1.3,5.8C130,352.8,118.7,354,107.3,354z M80.7,339.6c-4.2,0-7.8,0.5-10,1.6
				c-1.5,0.8-1.6,1.6-1.4,2.3c0.1,0.3,1.1,1.5,5.2,2.6c15.6,4.2,48.7,2.5,53.6-1.6c-2.2-5.1-12.6-7.7-19.8-9.1
				c0.4,0.7,0.5,1.1,0.4,1.7c-0.1,0.6-0.3,1.1-0.8,1.5l-0.1,0.1c-0.3,0.2-0.8,0.4-1.2,0.4c0.8,0.6,1.6,1.3,2.3,2l0.2,0.3l1.3,2
				l-2,1.3l0,0c-1.3,0.9-5.9,3-8,2c-0.5-0.3-0.9-0.7-1.1-1.2l-0.5-0.3l0.3-1.4l2,0.4l1.2-1c-0.2-0.1-0.4-0.2-0.4-0.2
				c0.1,0,0.3,0,0.5-0.1C97.7,341.2,88.4,339.6,80.7,339.6z M85.9,333.9c6,0,12.6,0.8,17.7,3.3c-0.7-0.8-1.6-1.8-2.4-3.1
				c-7.2-1.2-15.5-2.1-22.9,0.2l-0.3,0.1C80.4,334.1,83.1,333.9,85.9,333.9z M100,329.8l4,0.8c0.5,0.1,1.1,0.2,1.8,0.3
				c1.8,0.3,3.9,0.7,6.1,1.2c-3.1-0.8-6.1-1.4-8.6-1.8l0,0l-4.3-0.7c-8.1-1.2-18.4-2.1-26.2,1.9c1-0.2,2.3-0.4,4.1-0.9l0.4-0.1
				c7.6-2.3,15.7-1.7,22.9-0.6L100,329.8z M87.6,241.1L87.6,241.1L87.6,241.1z M94.3,193.7c-1.4,0-2.8,0.2-4.2,0.7
				c-10.8,3.9-9.7,19.8-6.9,32.4c0,0.1,0,0.2,0.1,0.5c2,10.4,3.8,13,4.4,13.6c0.1-0.1,0.3-0.4,0.6-0.7c0.8-1.3-0.7-5.7-1.4-7.8
				c-0.4-1.1-0.7-2-0.9-2.8c-1.4-5.3-2.7-10.6-3.1-16.2c-0.4-5.8,1.3-13.6,5.9-16.9c1.9-1.3,5-2.5,9.6-0.7
				c5.3,2.2,10.1,6.8,13.2,12.2c-2.3-4.7-5.6-9-9.4-11.7C99.6,194.6,97,193.7,94.3,193.7z"/>
		</g>
		<g>
			<path id="_x3C_Path_x3E__11_" class="st0" d="M313.5,2c-0.4-1.4-2-2.3-3.4-1.9c-2,0.6-4.1,1.2-6.1,1.8c-4,1.2-8.1,2.4-12.1,3.6
				c-3.1,0.9-6.1,1.9-9.1,2.8c-5.6,1.7-11.2,3.5-16.9,5.2c-0.2-1.1-0.6-2.4-1.7-2.9c-0.7-0.3-1.5-0.2-2.1,0.3
				c-2.2,1.7-1.3,5-2.4,7.3c-2.3-1.4-3.3-5.9-6.6-5.5c-2,0.2-2.8,2.3-2.6,4.1c0.1,1.4,0.5,2.8,0.5,4.2c-1.5-0.8-2.6-2-4.1-2.7
				c-1.1-0.5-2.5-0.8-3.7-0.4c-2,0.6-2.2,2.6-1.4,4.3c0.5,0.9,1.1,1.7,1.7,2.5c0.3,0.4,0.6,0.8,0.8,1.3c0.1,0.1,0.4,0.7,0.3,0.8
				c-0.5,0.6-1.8,0.2-2.4,0c-0.9-0.4-1.8-0.9-2.4-1.7c-10.2,13.3-20.6,26.5-31,39.7c-10.6,13.3-21.2,26.6-32,39.7
				c-10.7,13-21.4,26-33,38.1c-1.4,1.5-2.9,2.9-4.3,4.4c-1,1.1-1.3,2.7-0.7,4c0.6,1.4,2.1,2.2,3.6,2.1c1.8-0.1,2.9-1.6,4-2.8
				c5.6-6.1,10.8-12.6,15.9-19c10.5-13.3,20.7-26.9,30.8-40.5c10.2-13.7,20.2-27.6,30.1-41.4c5.5-7.7,11-15.4,16.5-23.2
				c1.2,1.8,3.8,3.7,6,2.4c2.6-1.5,0.1-5.2-0.8-7c2.3,1.1,3.9,3.8,6.7,3.8c3.8,0,3.4-4.7,2.9-7.2c1,1.2,2.1,2.4,3.6,3
				c2.1,0.9,3.9-0.3,4.3-2.4c0.2-1,0.2-2,0.2-3s-0.1-2.1,0.3-3.1c0.7-1.8,2.2,0.8,2.4,1.6c6.3-1.3,12.6-2.5,18.8-3.8
				c3.2-0.6,6.4-1.3,9.5-1.9c4-0.8,8-1.5,12-2.3c1-0.2,2-0.4,3-0.5c0.9-0.2,1.9-0.3,2.8-0.5C313.1,5,313.9,3.4,313.5,2
				C313.1,0.5,314,3.4,313.5,2z"/>
			<path class="st0" d="M142.1,155.1c-2.2,0-4.3-1.3-5.2-3.3c-0.9-2-0.5-4.4,1.1-6.1c0.7-0.8,1.5-1.5,2.2-2.3
				c0.7-0.7,1.4-1.4,2.1-2.2c11.6-12.1,22.4-25.2,32.9-38c10.8-13.1,21.6-26.6,32-39.7c10.2-12.9,20.7-26.3,31-39.7l1.4-1.8
				c-0.4-1.3-0.3-2.6,0.2-3.6c0.2-0.4,0.4-0.8,0.7-1.1l0,0l0,0c0.5-0.6,1.3-1,2.1-1.3c2-0.7,4.1,0,5.1,0.5c0.3,0.1,0.5,0.3,0.8,0.4
				c-0.2-1.6,0.3-3.3,1.2-4.5c0.4-0.5,0.8-0.9,1.3-1.1l-0.1-0.4l0.3,0.3c0.5-0.3,1.1-0.4,1.6-0.5c2.7-0.3,4.4,1.4,5.6,3.1
				c0.2-1.6,0.7-3.3,2.3-4.5c1.1-0.9,2.7-1.2,4.1-0.6c1.1,0.5,1.8,1.4,2.2,2.3c2.6-0.8,5.2-1.6,7.7-2.4c2.4-0.8,4.9-1.5,7.3-2.2
				c1.3-0.4,2.6-0.8,3.9-1.2c1.7-0.5,3.5-1.1,5.2-1.6c2-0.6,4-1.2,6-1.8c2-0.6,4-1.2,6-1.8c1-0.3,2-0.6,3.1-0.9c1-0.3,2-0.6,3-0.9
				c2.1-0.6,4.3,0.3,5.4,2.1c0.2,0.3,0.4,0.6,0.6,1.1c0.2,0.5,0.2,1,0.2,1.4c0,0.9-0.2,1.7-0.7,2.5c-0.7,1.1-1.8,1.9-3.2,2.1
				c-0.4,0.1-0.9,0.2-1.4,0.3c-0.4,0.1-0.9,0.1-1.3,0.2l-0.2,0c-0.9,0.1-1.8,0.3-2.8,0.5c-2,0.4-4,0.8-6,1.2c-2,0.4-4,0.7-6,1.1
				c-1.4,0.3-2.8,0.6-4.2,0.8c-1.8,0.4-3.6,0.7-5.4,1.1c-3.3,0.7-6.8,1.4-10.2,2.1c-2.8,0.6-5.7,1.1-8.6,1.7l-1.1,0.2
				c0,0.9,0,1.8-0.2,2.7c-0.3,1.7-1.3,3-2.6,3.8c-1.3,0.7-2.9,0.7-4.4,0.1c-0.2-0.1-0.4-0.2-0.6-0.3c-0.2,1.1-0.5,2.1-1.2,2.9
				c-0.6,0.8-1.8,1.7-3.9,1.7c-1,0-1.9-0.3-2.8-0.6c0,1.4-0.6,2.6-2.1,3.6c-2.3,1.3-4.8,0.6-6.8-1c-5.1,7.2-10.2,14.3-15.1,21.2
				c-10.1,14.1-20,27.8-30.1,41.4c-9.7,13-20.1,27-30.8,40.5c-4.8,6-10.2,12.8-16,19.1l-0.4,0.4c-1.1,1.2-2.6,2.9-5,3
				C142.4,155.1,142.3,155.1,142.1,155.1z M191.3,89.9c-4.3,5.3-8.6,10.6-12.9,15.9c-10.5,12.8-21.5,26.1-33.1,38.2
				c-0.7,0.7-1.4,1.5-2.2,2.2c-0.7,0.7-1.4,1.4-2.1,2.2c-0.5,0.5-0.6,1.2-0.3,1.8c0.3,0.6,0.9,1,1.7,0.9c0.7,0,1.3-0.7,2.2-1.7
				l0.4-0.5c5.7-6.2,11.1-13,15.8-18.9C171.4,116.6,181.7,102.8,191.3,89.9z M249.2,22.2c0.8,0.6,1.4,1,2,1.1l-1.1-0.6
				C249.7,22.6,249.4,22.4,249.2,22.2z M310.8,2c0,0-0.1,0-0.1,0c-1,0.3-2,0.6-3,0.9c-1,0.3-2,0.6-3,0.9c-2,0.6-4,1.2-6.1,1.8
				c0,0,0,0,0,0c0.2,0,0.5-0.1,0.7-0.1c2-0.4,4-0.7,6-1.1c1-0.2,2-0.4,3.1-0.5c0.5-0.1,0.9-0.2,1.4-0.2c0.4-0.1,0.9-0.1,1.3-0.2
				c0.3-0.1,0.5-0.1,0.5-0.3c0.1-0.1,0.1-0.3,0.1-0.5C311.5,2.3,311.1,2,310.8,2z"/>
		</g>
	</g>
	<g>
		<path class="st1" d="M110.5,189.4c-7.2,0-14.6-1.9-22.3-5.7c-12-5.9-22.8-15.6-32-24.2c-4.7-4.5-42.4-44.4-42.1-48.2
			c0-0.2,0.1-0.3,0.2-0.4l0.2,0.2l0.2-0.1c0.9,1.3,35.1,37.6,38.9,40.9c1.5,1.3,2.9,2.6,4.4,4c12.9,11.7,27.5,25,44.9,28.5
			c23.4,4.7,46.1-16.8,59.7-29.6c1.8-1.7,3.5-3.3,5.3-5c8.5-8,17.2-16.3,25.2-25.1c-33.7,5.3-68-0.4-101.2-5.8
			c-2.8-0.5-5.6-0.9-8.3-1.4c-3.3-0.5-6.6-1-9.9-1.6c-10-1.6-20.4-3.2-30.7-4.5c-9.1-1.1-18-2.1-26.7-1.5c-4.1,0.2-8,0.5-11.4,2.2
			c-1.7,0.9-3.6,6.3-3.5,6.9c0,0,0-0.1-0.1-0.1l-0.1,0.2l0.1,0.3c-0.8,0.2-1.1-0.2-1.2-0.4c-0.7-1.5,2.5-7,3.3-7.6
			c3.6-2.3,8.5-2.8,12.8-3.1c11.1-0.8,22.5,0.3,33,1.7c14.9,1.8,30,4.1,44.5,6.3l7.2,1.1c20.6,3.1,42.6,6.1,64.5,5.9
			c10.5-0.1,20.2-1,29.8-2.6c1.8-0.3,8.3-8.4,11.5-12.3c2.1-2.5,2.1-2.5,2.3-2.4c0.1,0.1,0.2,0.1,0.2,0.3c0.2,1.4-6.9,11.1-8.6,13.5
			c0.3,0,0.6-0.1,0.9-0.1c5.9-1,21.6-3.6,21.3-9.5c-0.9-4.7-11.7-5.3-16.9-5.6c-0.7,0-1.3-0.1-1.7-0.1c-12.1-0.8-24.4-1.1-35.9-1.3
			c-3.2-0.1-11.9-0.1-22.9-0.1c-13.5,0-30.4-0.1-43.8-0.2c-23.7-0.2-23.7-0.6-23.7-1c0-0.5,0.1-1.3,46.7-1.9
			c24-0.3,48.6-0.4,52.8-0.3c1.5,0,3.6,0,6.1,0c14.9-0.2,42.5-0.6,43.2,10.4v0c-0.2,9.7-17,12.2-26.1,13.6c-0.9,0.1-1.7,0.3-2.4,0.4
			c-2.6,1.3-5,4.3-7.2,7.3c-1,1.3-2,2.6-2.9,3.6c-3.3,3.6-6.7,7.2-10.1,10.7c-1.5,1.5-2.9,3-4.4,4.5c-13.8,14.1-28.1,28.8-46.6,36.2
			C121.3,188.3,115.9,189.4,110.5,189.4z M14.6,111.6c1.1,4.4,35.4,41.3,41.9,47.5c19.7,18.5,43.1,37.4,69.9,26.6
			c18.4-7.4,32.7-22,46.4-36.1c1.5-1.5,2.9-3,4.4-4.5c3.4-3.5,6.8-7.1,10.1-10.7c0.9-1,1.9-2.3,2.9-3.6c2.3-3,4.7-6.1,7.5-7.5l0.1,0
			c0.7-0.1,1.5-0.2,2.4-0.4c8.3-1.2,25.5-3.8,25.7-13.1c-0.6-10.5-27.9-10.1-42.6-9.9c-2.5,0-4.6,0.1-6.1,0
			c-8.6-0.2-89.2,0.4-98.3,1.7c6.1,0.6,43.4,0.7,66.3,0.7c11,0,19.8,0,22.9,0.1c11.5,0.2,23.8,0.5,35.9,1.3c0.5,0,1,0.1,1.7,0.1
			c5.3,0.3,16.3,0.8,17.3,6c0.3,6.4-15.1,8.9-21.7,10c-0.6,0.1-1.1,0.2-1.5,0.3l-0.6,0.1l0.4-0.5c2.4-3.2,7.7-10.7,8.7-13
			c-0.4,0.4-0.9,1.1-1.4,1.7c-4.7,5.9-9.9,12.1-11.8,12.4c-9.6,1.6-19.3,2.5-29.8,2.6c-21.9,0.2-43.9-2.8-64.5-5.9l-7.2-1.1
			c-14.6-2.2-29.6-4.5-44.5-6.3c-10.6-1.4-21.9-2.5-33-1.7c-4.2,0.3-9.1,0.8-12.6,3.1c-0.8,0.5-3.6,5.8-3.1,6.9
			c0,0.1,0.1,0.2,0.4,0.2c0.1-1.3,2-6.3,3.8-7.2c3.4-1.7,7.5-2,11.6-2.2c8.7-0.6,17.6,0.4,26.7,1.5c10.3,1.3,20.6,2.9,30.7,4.5
			c3.3,0.5,6.6,1.1,9.9,1.6c2.8,0.5,5.5,0.9,8.3,1.4c33.4,5.5,67.8,11.2,101.7,5.7l0.7-0.1l-0.5,0.5c-8.1,9-17,17.5-25.7,25.6
			c-1.8,1.7-3.5,3.3-5.3,5c-13.6,12.9-36.4,34.5-60.1,29.8c-17.5-3.5-32.2-16.8-45.1-28.6c-1.5-1.3-3-2.7-4.4-4
			c-2.4-2.1-15.5-15.9-21-21.8C27.4,125.4,16.8,114.1,14.6,111.6z"/>
		<path class="st1" d="M106.6,352.2c-12.3,0-24.9-1.3-28-1.9c-0.3-0.1-0.7-0.1-1.1-0.2c-4-0.6-11.5-1.8-12.1-6.2
			c-0.7-5.1,8.2-7.1,9.2-7.3c9.5-1.8,26.2-1.8,33,5.6l0.4,0.5l-0.5,0.3c-0.4,0.4-4.9,2.5-6.3,1.8c-0.3-0.1-0.4-0.4-0.4-0.7l0,0
			l0-0.1c0,0,0-0.1,0-0.1l0,0l0.3,0.1l0.2-0.1c0-0.1-0.1-0.1-0.1-0.1c0.4,0.1,3.9-0.9,5-1.3c-4.5-3.3-28.6-7.2-36.4-3
			c-1.9,1-2.6,2.4-2.3,4.2c0.2,1.5,2.3,2.8,6,3.8c14.4,4.1,51.6,3.3,56.3-2.4c0.2-0.3,0.2-0.4,0.1-0.9c-2.3-7.3-16.8-9.9-24.6-11.4
			c-0.4-0.1-0.8-0.1-1.1-0.2c0.1,0.1,0.3,0.3,0.4,0.5c1.6,2,2.5,3.1,2.4,3.6c0,0.1-0.1,0.2-0.1,0.3c-0.1,0.1-0.2,0.1-0.4,0.1
			c-1.1-0.2-3.8-4.1-4.2-4.7c-7.6-1.3-16.4-2.3-24.5,0.1l-0.4,0.1c-5.3,1.4-7.9,1.5-8.4,0.5c-0.4-0.7,0.1-1.7,1.6-3.1
			c8.4-4.9,19.4-4.1,28.2-2.8c-9.8-15.9-11.3-34.7-4-53.1c1.9-4.9,4.4-9.7,6.9-14.8c6.5-12.9,13.2-26.2,11.4-40.3
			c-1.1-8.8-7.8-17.9-15.5-21.1c-2.9-1.2-5.4-1-7.4,0.4c-3.7,2.7-5.3,9.5-4.9,14.9c0.3,5.4,1.6,10.5,3,15.8c0.2,0.7,0.5,1.6,0.8,2.6
			c1.1,3.2,2.7,7.5,1.2,9.7c-0.9,1.4-1.8,2.1-2.8,1.9c-2.9-0.5-5-8.8-6.3-15.6c0-0.2-0.1-0.4-0.1-0.4c-4.3-19.4-1.4-31.5,8.4-35
			c4.7-1.7,9.6-0.9,14.1,2.3c8.5,6,14.2,19,14.2,27.5c0,13.8-6.6,26.2-12.9,38.2c-2.6,4.9-5.3,9.9-7.4,14.9
			c-7.6,17.9-6.5,36.4,3.2,52.3l0.4,0.1c9.3,1.6,28.4,4.9,32.3,15.1c0,0,0,0.1,0.1,0.1h0c0,0,0,0,0,0c0,0,0,0.1,0,0.1
			c0.1,0.2,0.1,0.3,0.1,0.4l0,0h0c0,0,0,0,0,0c0.4,1.5,0.1,2.8-0.9,4C129.2,351.1,118,352.2,106.6,352.2z M85.8,336.2
			c-4.1,0-8,0.4-11.1,1c-1,0.2-9.5,2-8.8,6.7c0.5,4.1,7.8,5.2,11.6,5.8c0.4,0.1,0.8,0.1,1.2,0.2c5.2,1,46.5,4.8,53.4-2.8
			c0.9-1,1.2-2.2,0.8-3.6c-3.3-10.3-22.7-13.7-32-15.3l-0.7-0.1l-0.1-0.1c-9.8-16-11-34.8-3.3-52.8c2.1-5,4.8-10.1,7.4-15
			c6.3-11.9,12.9-24.3,12.9-37.9c0-8.3-5.6-21.2-14-27.1c-4.4-3.1-9-3.9-13.6-2.2c-9.5,3.4-12.3,15.3-8,34.4c0,0.1,0,0.2,0.1,0.4
			c1.7,9.3,3.9,14.8,5.9,15.2c0.7,0.1,1.5-0.4,2.3-1.7c1.3-2-0.2-6.2-1.3-9.3c-0.4-1-0.7-1.9-0.9-2.6c-1.4-5.2-2.7-10.4-3-15.8
			c-0.4-5.5,1.3-12.6,5.1-15.4c2.2-1.6,4.8-1.7,7.9-0.5c8,3.3,14.7,12.4,15.9,21.5c1.7,14.3-5,27.6-11.5,40.6
			c-2.6,5.1-5,9.9-6.9,14.8c-7.2,18.4-5.7,37.3,4.3,53.1l0.3,0.5l-0.5-0.1c-8.8-1.3-19.9-2.2-28.3,2.7c-1.6,1.6-1.6,2.2-1.5,2.5
			c0.3,0.5,1.9,0.8,7.9-0.7l0.4-0.1c8.2-2.5,17.1-1.4,24.8-0.1l0.1,0l0.1,0.1c1,1.6,3.2,4.3,3.9,4.6c-0.2-0.6-1.6-2.3-2.3-3.1
			c-0.5-0.6-0.8-0.9-0.8-1l-0.2-0.5l0.5,0.1c0.5,0.1,1.1,0.2,1.8,0.3c7.9,1.4,22.6,4.1,25,11.7c0.1,0.6,0.1,0.8-0.2,1.3
			c-4.9,6-41.9,6.8-56.8,2.5c-4-1.1-6.1-2.6-6.3-4.3c-0.3-2,0.5-3.6,2.6-4.7c8.4-4.5,33.5-0.2,37.2,3.3l0.2,0.2l-0.2,0.2
			c-0.2,0.2-4.1,1.4-5.5,1.5c0,0.1,0.1,0.1,0.1,0.1c1.1,0.5,5.3-1.3,5.7-1.8l0.1-0.1l-0.1-0.1C102.8,337.8,94,336.2,85.8,336.2z"/>
		<path class="st1" d="M142.1,153.4c-1.6,0-3-0.9-3.6-2.3c-0.6-1.4-0.3-3.1,0.7-4.3c0.7-0.8,1.4-1.5,2.2-2.2
			c0.7-0.7,1.4-1.4,2.1-2.2c11.6-12.1,22.5-25.3,33-38.1c10.8-13.2,21.6-26.7,32-39.7c10.2-12.9,20.7-26.3,31-39.7l0.2-0.3L240,25
			c0.6,0.8,1.5,1.3,2.3,1.6c1.1,0.4,1.8,0.4,2.1,0.1c0-0.1-0.2-0.4-0.2-0.5l-0.1-0.1c-0.2-0.5-0.5-0.8-0.8-1.2
			c-0.6-0.8-1.2-1.6-1.7-2.5c-0.5-1.1-0.6-2.3-0.2-3.2c0.3-0.7,0.9-1.2,1.8-1.5c1.1-0.4,2.5-0.2,3.9,0.4c0.8,0.4,1.5,0.9,2.2,1.4
			c0.5,0.4,1,0.7,1.5,1.1c0-0.6-0.1-1.3-0.2-1.9c-0.1-0.6-0.2-1.2-0.2-1.8c-0.1-1.2,0.2-2.5,0.8-3.3c0.5-0.6,1.2-1,2-1.1
			c2.2-0.3,3.4,1.5,4.6,3.1c0.6,0.9,1.2,1.7,1.9,2.2c0.3-0.8,0.4-1.7,0.5-2.7c0.2-1.7,0.4-3.4,1.8-4.5c0.7-0.5,1.6-0.7,2.4-0.3
			c1.2,0.5,1.6,1.8,1.8,2.8c3.1-0.9,6.3-1.9,9.4-2.9c2.4-0.8,4.9-1.5,7.3-2.2c1.3-0.4,2.6-0.8,3.9-1.2c1.7-0.5,3.4-1.1,5.2-1.6
			c2-0.6,4-1.2,6-1.8c2-0.6,4-1.2,6-1.8c1-0.3,2-0.6,3.1-0.9c1-0.3,2-0.6,3-0.9c1.3-0.4,2.8,0.3,3.5,1.4c0.1,0,0.2,0.2,0.3,0.6
			c0.1,0.4,0.2,0.6,0.1,0.7c0,0.6-0.1,1.2-0.4,1.7c-0.4,0.7-1.1,1.1-2,1.3c-0.4,0.1-0.9,0.2-1.4,0.3c-0.5,0.1-0.9,0.1-1.4,0.2
			c-1,0.1-2,0.3-3,0.5c-2,0.4-4,0.8-6,1.2c-2,0.4-4,0.7-6,1.1c-1.4,0.3-2.8,0.6-4.2,0.8c-1.7,0.4-3.6,0.7-5.3,1.1
			c-3.4,0.7-6.9,1.4-10.2,2.1c-2.9,0.6-5.7,1.1-8.6,1.7l-0.2,0l-0.1-0.2c-0.2-0.6-1-2-1.5-2c-0.2,0-0.3,0.2-0.4,0.5
			c-0.3,0.8-0.3,1.7-0.3,2.5c0,0.2,0,0.3,0,0.5c0,1,0,2-0.2,3c-0.2,1.2-0.9,2.1-1.7,2.6c-0.8,0.5-1.9,0.5-2.9,0
			c-1.3-0.5-2.3-1.4-3.1-2.4c0.3,1.7,0.3,4.1-0.8,5.5c-0.6,0.7-1.4,1.1-2.5,1.1c-1.9,0-3.2-1.1-4.5-2.2c-0.5-0.4-1-0.9-1.6-1.2
			c0,0,0,0,0,0c1,1.9,2.8,5.1,0.3,6.6c-2.3,1.4-4.9-0.5-6.1-2.2c-5.5,7.7-11,15.5-16.3,22.9c-10.1,14.1-20,27.8-30.1,41.4
			c-9.7,13-20.1,26.9-30.8,40.5c-4.8,6-10.1,12.7-15.9,19c-0.1,0.1-0.3,0.3-0.4,0.4c-1,1.1-2.1,2.3-3.8,2.4
			C142.3,153.4,142.2,153.4,142.1,153.4z M239.8,25.5C229.6,38.8,219.1,52.1,209,65c-10.4,13.1-21.2,26.6-32,39.7
			c-10.5,12.8-21.4,26-33,38.1c-0.7,0.8-1.4,1.5-2.2,2.2c-0.7,0.7-1.4,1.4-2.1,2.2c-0.9,1-1.2,2.5-0.7,3.7c0.5,1.3,1.9,2.1,3.4,2
			c1.5-0.1,2.5-1.2,3.4-2.3c0.1-0.2,0.3-0.3,0.4-0.4c5.8-6.3,11.1-13,15.9-19c10.7-13.6,21.1-27.5,30.8-40.5
			C203,77,212.9,63.3,223,49.3c5.4-7.6,11-15.4,16.5-23.2l0.2-0.3l0.2,0.3c1,1.6,3.5,3.6,5.7,2.3c2.1-1.2,0.5-4-0.5-5.9
			c-0.2-0.3-0.3-0.5-0.4-0.8l-0.3-0.7l0.7,0.3c0.9,0.4,1.7,1.1,2.4,1.7c1.3,1.1,2.5,2.1,4.2,2.1c0.9,0,1.6-0.3,2.1-0.9
			c1.2-1.5,0.8-4.4,0.5-6l0.4-0.2c1,1.2,2,2.3,3.5,2.9c0.9,0.4,1.7,0.4,2.5,0c0.8-0.4,1.3-1.2,1.5-2.2c0.2-1,0.2-2,0.2-3
			c0-0.2,0-0.3,0-0.5c0-0.9,0-1.8,0.3-2.7c0.3-0.7,0.6-0.8,0.9-0.8c0.8,0.1,1.6,1.5,1.9,2.2c2.8-0.6,5.6-1.1,8.4-1.7
			c3.4-0.7,6.8-1.4,10.2-2.1c1.8-0.3,3.6-0.7,5.3-1.1c1.4-0.3,2.8-0.6,4.2-0.8c2-0.4,4-0.8,6-1.2c2-0.4,4-0.7,6-1.1
			c1-0.2,2-0.4,3-0.5c0.4-0.1,0.9-0.2,1.4-0.2c0.5-0.1,0.9-0.1,1.4-0.2c0.7-0.1,1.3-0.5,1.6-1.1c0.4-0.6,0.5-1.3,0.3-1.9
			c-0.4-1.3-1.8-2.1-3.1-1.7c-1,0.3-2,0.6-3,0.9c-1,0.3-2,0.6-3,0.9c-2,0.6-4,1.2-6.1,1.8c-2,0.6-4,1.2-6,1.8
			c-1.8,0.5-3.5,1.1-5.2,1.6c-1.3,0.4-2.6,0.8-3.9,1.2c-2.4,0.7-4.8,1.5-7.3,2.2c-3.1,1-6.4,2-9.6,3l-0.3,0.1l0-0.3
			c-0.2-0.9-0.5-2.2-1.6-2.7c-0.6-0.3-1.3-0.2-1.8,0.3c-1.3,1-1.4,2.5-1.6,4.1c-0.1,1.1-0.3,2.1-0.7,3.1l-0.1,0.2l-0.2-0.1
			c-0.9-0.6-1.6-1.6-2.3-2.5c-1.1-1.6-2.2-3.1-4.1-2.9c-0.7,0.1-1.2,0.4-1.6,0.9c-0.6,0.7-0.9,1.8-0.7,2.9c0,0.6,0.1,1.2,0.2,1.8
			c0.1,0.8,0.3,1.6,0.3,2.4v0.4l-0.4-0.2c-0.7-0.4-1.3-0.9-2-1.3c-0.7-0.5-1.4-1-2.1-1.4c-1.3-0.6-2.5-0.7-3.5-0.4
			c-0.7,0.2-1.2,0.6-1.5,1.2c-0.3,0.8-0.3,1.8,0.2,2.8c0.5,0.9,1.1,1.7,1.7,2.4c0.3,0.4,0.6,0.8,0.8,1.3c0.1,0.2,0.4,0.6,0.4,0.9
			c0,0.1-0.1,0.2-0.1,0.2c-0.5,0.7-1.8,0.4-2.7,0.1C241.4,26.7,240.5,26.2,239.8,25.5z M244.4,26.6
			C244.4,26.6,244.4,26.6,244.4,26.6C244.4,26.6,244.4,26.6,244.4,26.6z"/>
	</g>
</g>
</svg>
