<?xml version="1.0" encoding="utf-8"?>
<!-- Generator: Adobe Illustrator 23.0.0, SVG Export Plug-In . SVG Version: 6.00 Build 0)  -->
<svg version="1.1" id="Calque_1" xmlns="http://www.w3.org/2000/svg" xmlns:xlink="http://www.w3.org/1999/xlink" x="0px" y="0px"
	 viewBox="0 0 314 352" style="enable-background:new 0 0 314 352;" xml:space="preserve">
<style type="text/css">
	.st0{fill:#7731B0;stroke:#FFE77F;stroke-width:0.5;stroke-miterlimit:10;}
</style>
<g>
	<path class="st0" d="M226.2,109.9c-0.7-12.6-38.4-9.9-49-10.1c-8.5-0.2-99.2,0.4-99.3,2c0,1.1,79.2,0.8,90.2,1
		c11.9,0.2,24,0.5,35.9,1.3c4.1,0.3,17.7,0.3,18.8,5.9c0.3,6.7-18.6,9.2-23,10c0.9-1.2,9.8-13.3,8.9-13.9
		c-0.2-0.1-11,14.3-13.6,14.7c-9.9,1.7-19.8,2.5-29.8,2.6c-21.6,0.2-43.2-2.7-64.5-5.9c-17.2-2.6-34.4-5.3-51.7-7.4
		c-10.9-1.4-22-2.5-33-1.7c-4.2,0.3-9.1,0.8-12.7,3.1c-0.9,0.6-5.2,8.3-2.3,7.5c-0.5,0.1,1.6-6.2,3.6-7.2c3.5-1.7,7.7-2,11.5-2.2
		C25,109,34,110,42.9,111.1c13.6,1.7,27.1,4,40.6,6.1c36.3,5.9,73.4,13,110.1,7.1c-9.7,10.8-20.4,20.6-30.9,30.6
		c-15.3,14.5-37,34.3-59.9,29.7c-19.4-3.9-35.1-19.7-49.4-32.5c-4.1-3.6-39-40.9-38.9-41c-2.3,1.6,35.9,42.5,41.9,48.2
		c19.1,17.9,42.6,37.7,70.2,26.6c20.4-8.2,35.8-25.3,50.9-40.6c3.4-3.5,6.8-7.1,10.1-10.7c3.1-3.4,6.4-9.1,10.3-11
		C205.2,122.4,226,120.4,226.2,109.9L226.2,109.9z"/>
	<path class="st0" d="M133.2,343.3c-3.4-10.7-23.6-14-32.8-15.6c-10-16.3-10.7-35.2-3.3-52.6c7.3-17.1,20.3-33.6,20.3-53
		c0-12.3-12.4-35.1-27.9-29.5c-13.4,4.8-10.5,24.4-8.2,34.7c0.2,0.9,3.7,22,8.7,14c1.8-2.8-1.4-9.3-2.1-12.1
		c-1.4-5.2-2.7-10.4-3-15.8c-0.5-7.4,2.7-19.7,12.7-15.6c8.2,3.4,14.6,12.7,15.7,21.3c2.4,19.7-11.5,37.8-18.4,55.2
		c-7,17.8-6,37,4.3,53.3c-9.2-1.4-20.1-2.2-28.5,2.7c-5.8,5.7,5.4,2.5,7,2.1c7.9-2.4,16.7-1.5,24.7-0.1c0.2,0.3,3.6,5.2,4.3,4.7
		c0.5-0.4-2.9-4.1-3.1-4.5c6.8,1.3,24,3.8,26.6,11.9c0.1,0.5,0.1,0.7-0.2,1.1c-5.8,7.1-61.6,6.9-62.7-1.6
		c-1.9-10.8,34.9-5.4,39.4-1.2c-0.4,0.3-5.7,1.8-5.6,1.4c-0.3,2,5.7-0.6,6.3-1.2l0.3-0.2l-0.2-0.3c-6.9-7.4-23.7-7.2-32.8-5.5
		c-3,0.6-9.6,2.7-9,7c0.6,4.7,9.5,5.6,13,6.2C84.5,351.2,137.1,356.2,133.2,343.3C132.8,342,133.4,343.9,133.2,343.3z"/>
	<path id="_x3C_Path_x3E_" class="st0" d="M313.5,2c-0.4-1.4-2-2.3-3.4-1.9c-2,0.6-4.1,1.2-6.1,1.8c-4,1.2-8.1,2.4-12.1,3.6
		c-3.1,0.9-6.1,1.9-9.1,2.8c-5.6,1.7-11.2,3.5-16.9,5.2c-0.2-1.1-0.6-2.4-1.7-2.9c-0.7-0.3-1.5-0.2-2.1,0.3c-2.2,1.7-1.3,5-2.4,7.3
		c-2.3-1.4-3.3-5.9-6.6-5.5c-2,0.2-2.8,2.3-2.6,4.1c0.1,1.4,0.5,2.8,0.5,4.2c-1.5-0.8-2.6-2-4.1-2.7c-1.1-0.5-2.5-0.8-3.7-0.4
		c-2,0.6-2.2,2.6-1.4,4.3c0.5,0.9,1.1,1.7,1.7,2.5c0.3,0.4,0.6,0.8,0.8,1.3c0.1,0.1,0.4,0.7,0.3,0.8c-0.5,0.6-1.8,0.2-2.4,0
		c-0.9-0.4-1.8-0.9-2.4-1.7c-10.2,13.3-20.6,26.5-31,39.7c-10.6,13.3-21.2,26.6-32,39.7c-10.7,13-21.4,26-33,38.1
		c-1.4,1.5-2.9,2.9-4.3,4.4c-1,1.1-1.3,2.7-0.7,4c0.6,1.4,2.1,2.2,3.6,2.1c1.8-0.1,2.9-1.6,4-2.8c5.6-6.1,10.8-12.6,15.9-19
		c10.5-13.3,20.7-26.9,30.8-40.5c10.2-13.7,20.2-27.6,30.1-41.4c5.5-7.7,11-15.4,16.5-23.2c1.2,1.8,3.8,3.7,6,2.4
		c2.6-1.5,0.1-5.2-0.8-7c2.3,1.1,3.9,3.8,6.7,3.8c3.8,0,3.4-4.7,2.9-7.2c1,1.2,2.1,2.4,3.6,3c2.1,0.9,3.9-0.3,4.3-2.4
		c0.2-1,0.2-2,0.2-3c0-1-0.1-2.1,0.3-3.1c0.7-1.8,2.2,0.8,2.4,1.6c6.3-1.3,12.6-2.5,18.8-3.8c3.2-0.6,6.4-1.3,9.5-1.9
		c4-0.8,8-1.5,12-2.3c1-0.2,2-0.4,3-0.5c0.9-0.2,1.9-0.3,2.8-0.5C313.1,5,313.9,3.4,313.5,2C313.1,0.5,314,3.4,313.5,2z"/>
</g>
</svg>
